<?xml version="1.0" standalone="no"?>
<!DOCTYPE svg PUBLIC "-//W3C//DTD SVG 20010904//EN"
 "http://www.w3.org/TR/2001/REC-SVG-20010904/DTD/svg10.dtd">
<svg version="1.0" xmlns="http://www.w3.org/2000/svg"
 width="256.000000pt" height="256.000000pt" viewBox="0 0 256.000000 256.000000"
 preserveAspectRatio="xMidYMid meet">

<g transform="translate(0.000000,256.000000) scale(0.100000,-0.100000)"
fill="#000000" stroke="none">
<path d="M670 2010 l0 -140 423 0 c403 0 424 -1 467 -21 60 -27 88 -54 116
-114 39 -82 27 -164 -32 -234 -59 -69 -84 -75 -304 -81 l-195 -5 -3 -132 -3
-132 267 -370 267 -371 188 0 c104 0 189 3 189 6 0 3 -115 166 -256 361 -140
195 -254 356 -252 358 2 2 34 11 72 19 278 65 452 348 381 621 -45 172 -202
324 -375 364 -27 6 -223 11 -497 11 l-453 0 0 -140z"/>
<path d="M670 1065 l0 -655 160 0 160 0 0 655 0 655 -160 0 -160 0 0 -655z"/>
</g>
</svg>
